<?xml version="1.0" standalone="no"?><!DOCTYPE svg PUBLIC "-//W3C//DTD SVG 1.1//EN" "http://www.w3.org/Graphics/SVG/1.1/DTD/svg11.dtd"><svg t="1614653798977" class="icon" viewBox="0 0 1024 1024" version="1.1" xmlns="http://www.w3.org/2000/svg" p-id="776" xmlns:xlink="http://www.w3.org/1999/xlink" width="48" height="48"><defs><style type="text/css"></style></defs><path d="M512 992a32 32 0 0 1-32-32V576a32 32 0 1 1 64 0v384a32 32 0 0 1-32 32z" p-id="777" fill="#ffffff"></path><path d="M512 608c-70.592 0-128-57.408-128-128s57.408-128 128-128 128 57.408 128 128-57.408 128-128 128z m0-192c-35.296 0-64 28.704-64 64s28.704 64 64 64 64-28.704 64-64-28.704-64-64-64zM182.496 845.216c-8 0-16-2.976-22.208-8.96C61.728 741.184 7.456 613.6 7.456 477.024c0-133.152 51.968-258.496 146.368-352.864a31.968 31.968 0 1 1 45.248 45.248 432.288 432.288 0 0 0-127.616 307.616c0 119.04 47.328 230.24 133.28 313.152a32 32 0 0 1-22.24 55.04z" p-id="778" fill="#ffffff"></path><path d="M312.192 711.936c-8 0-16-2.976-22.208-8.96a309.76 309.76 0 0 1-95.616-224.736 310.336 310.336 0 0 1 91.552-220.768 31.968 31.968 0 1 1 45.248 45.248 246.752 246.752 0 0 0-72.8 175.52c0 67.904 27.008 131.36 76.064 178.688a32 32 0 0 1-22.24 55.008z" p-id="779" fill="#ffffff"></path><path d="M841.504 845.216a32 32 0 0 1-22.24-55.04c85.952-82.912 133.28-194.112 133.28-313.152 0-116.064-45.312-225.312-127.616-307.616a31.968 31.968 0 1 1 45.248-45.248 495.776 495.776 0 0 1 146.368 352.864c0 136.576-54.272 264.16-152.832 359.232a31.904 31.904 0 0 1-22.208 8.96z" p-id="780" fill="#ffffff"></path><path d="M711.808 711.936a32 32 0 0 1-22.24-55.04 246.304 246.304 0 0 0 76.064-178.688 246.848 246.848 0 0 0-72.8-175.52 31.968 31.968 0 1 1 45.248-45.248 310.304 310.304 0 0 1 91.552 220.768 309.824 309.824 0 0 1-95.616 224.736 31.776 31.776 0 0 1-22.208 8.992z" p-id="781" fill="#ffffff"></path></svg>